<?xml version="1.0" encoding="UTF-8" standalone="no"?>
<svg
   viewBox="0 0 300 300"
   version="1.1"
   id="svg6"
   sodipodi:docname="bash.svg"
   width="300"
   height="300"
   inkscape:version="1.1 (ce6663b3b7, 2021-05-25)"
   xmlns:inkscape="http://www.inkscape.org/namespaces/inkscape"
   xmlns:sodipodi="http://sodipodi.sourceforge.net/DTD/sodipodi-0.dtd"
   xmlns="http://www.w3.org/2000/svg"
   xmlns:svg="http://www.w3.org/2000/svg">
  <defs
     id="defs10" />
  <sodipodi:namedview
     id="namedview8"
     pagecolor="#ffffff"
     bordercolor="#666666"
     borderopacity="1.0"
     inkscape:pageshadow="2"
     inkscape:pageopacity="0.0"
     inkscape:pagecheckerboard="true"
     showgrid="false"
     width="300px"
     inkscape:zoom="1.2128906"
     inkscape:cx="33.803543"
     inkscape:cy="195.8132"
     inkscape:window-width="1440"
     inkscape:window-height="874"
     inkscape:window-x="1440"
     inkscape:window-y="0"
     inkscape:window-maximized="1"
     inkscape:current-layer="svg6" />
  <path
     fill="none"
     d="M -143.76,4.24 H -24.23 V 123.77 H -143.76 Z"
     id="path2" />
  <path
     fill="#293138"
     d="m 195.015,134.635 -37.73,-22.4 c -2.25,-1.33 -4.77,-2 -7.28,-2 -2.51,0 -5.03,0.67 -7.28,2.01 l -37.74,22.4 c -4.5,2.67 -7.28,7.61 -7.28,12.96 v 44.8 c 0,5.35 2.77,10.29 7.28,12.96 l 37.73,22.4 c 2.25,1.34 4.76,2 7.28,2 2.51,0 5.03,-0.67 7.28,-2 l 37.74,-22.4 c 4.5,-2.67 7.28,-7.62 7.28,-12.96 v -44.81 c 0,-5.34 -2.77,-10.29 -7.28,-12.96 z m -29.22,69.95 0.06,3.22 c 0,0.39 -0.25,0.83 -0.55,0.99 l -1.91,1.1 c -0.3,0.15 -0.56,-0.03 -0.56,-0.42 l -0.03,-3.17 c -1.63,0.68 -3.29,0.84 -4.34,0.42 -0.2,-0.08 -0.29,-0.37 -0.21,-0.71 l 0.69,-2.91 c 0.06,-0.23 0.18,-0.46 0.34,-0.6 0.06,-0.06 0.12,-0.1 0.18,-0.13 0.11,-0.06 0.22,-0.07 0.31,-0.03 1.14,0.38 2.59,0.2 3.99,-0.5 1.78,-0.9 2.97,-2.72 2.95,-4.52 -0.02,-1.64 -0.9,-2.31 -3.05,-2.33 -2.74,0.01 -5.3,-0.53 -5.34,-4.57 -0.03,-3.32 1.69,-6.78 4.43,-8.96 l -0.03,-3.25 c 0,-0.4 0.24,-0.84 0.55,-1 l 1.85,-1.18 c 0.3,-0.15 0.56,0.04 0.56,0.43 l 0.03,3.25 c 1.36,-0.54 2.54,-0.69 3.61,-0.44 0.23,0.06 0.34,0.38 0.24,0.75 l -0.72,2.88 c -0.06,0.22 -0.18,0.44 -0.33,0.58 a 0.77,0.77 0 0 1 -0.19,0.14 c -0.1,0.05 -0.19,0.06 -0.28,0.05 -0.49,-0.11 -1.65,-0.36 -3.48,0.56 -1.92,0.97 -2.59,2.64 -2.58,3.88 0.02,1.48 0.77,1.93 3.39,1.97 3.49,0.06 4.99,1.58 5.03,5.09 0.05,3.44 -1.79,7.15 -4.61,9.41 z m 19.78,-5.41 c 0,0.3 -0.04,0.58 -0.29,0.72 l -9.54,5.8 c -0.25,0.15 -0.45,0.02 -0.45,-0.28 v -2.46 c 0,-0.3 0.18,-0.46 0.43,-0.61 l 9.4,-5.62 c 0.25,-0.15 0.45,-0.02 0.45,0.28 z m 6.56,-55.09 -35.7,22.05 c -4.45,2.6 -7.73,5.52 -7.74,10.89 v 43.99 c 0,3.21 1.3,5.29 3.29,5.9 -0.65,0.11 -1.32,0.19 -1.98,0.19 -2.09,0 -4.15,-0.57 -5.96,-1.64 l -37.73,-22.4 c -3.69,-2.19 -5.98,-6.28 -5.98,-10.67 v -44.8 c 0,-4.39 2.29,-8.48 5.98,-10.67 l 37.74,-22.4 c 1.81,-1.07 3.87,-1.64 5.96,-1.64 2.09,0 4.15,0.57 5.96,1.64 l 37.74,22.4 c 3.11,1.85 5.21,5.04 5.8,8.63 -1.27,-2.67 -4.09,-3.39 -7.38,-1.47 z"
     id="path4"
     style="fill:#ffffff;fill-opacity:1" />
</svg>
