<?xml version="1.0" encoding="UTF-8" standalone="no"?>
<svg
   viewBox="0 0 300 300"
   version="1.1"
   id="svg4"
   sodipodi:docname="c.svg"
   width="300"
   height="300"
   inkscape:version="1.1 (ce6663b3b7, 2021-05-25)"
   xmlns:inkscape="http://www.inkscape.org/namespaces/inkscape"
   xmlns:sodipodi="http://sodipodi.sourceforge.net/DTD/sodipodi-0.dtd"
   xmlns="http://www.w3.org/2000/svg"
   xmlns:svg="http://www.w3.org/2000/svg">
  <defs
     id="defs8" />
  <sodipodi:namedview
     id="namedview6"
     pagecolor="#ffffff"
     bordercolor="#666666"
     borderopacity="1.0"
     inkscape:pageshadow="2"
     inkscape:pageopacity="0.0"
     inkscape:pagecheckerboard="true"
     showgrid="false"
     inkscape:zoom="1.2128906"
     inkscape:cx="124.90821"
     inkscape:cy="211.47826"
     inkscape:window-width="1440"
     inkscape:window-height="874"
     inkscape:window-x="1440"
     inkscape:window-y="0"
     inkscape:window-maximized="1"
     inkscape:current-layer="svg4"
     width="300px" />
  <path
     d="m 204.25,119.3 c -0.6,-1.1 -1.4,-2.1 -2.3,-2.6 l -48.1,-27.8 c -0.8,-0.5 -1.9,-0.7 -3.1,-0.7 -1.2,0 -2.3,0.3 -3.1,0.7 l -48.5,27.8 c -1.7,1 -3.4,3.5 -3.4,5.4 v 55.7 c 0,1.1 0.7,2.3 1.4,3.4 l 0.1,0.1 c 0.5,0.8 1.3,1.5 2,1.9 l 48.3,27.9 c 0.8,0.5 2,0.7 3.2,0.7 1.2,0 2.3,-0.3 3.1,-0.7 l 47.5,-27.9 c 1.7,-1 2.4,-3.5 2.4,-5.4 v -55.7 c 0,-0.8 0.4,-1.8 0,-2.6 z m -4.2,2.1 c 0,0.3 -0.3,0.5 -0.3,0.7 v 55.7 c 0,0.8 -0.2,1.7 -0.4,2 l -47.6,27.8 c -0.1,0.1 -0.5,0.2 -1.1,0.2 -0.6,0 -1,-0.1 -1.1,-0.2 l -48.2,-27.8 c 0,0 -0.1,-0.1 -0.2,-0.1 l -0.6,-0.6 c -0.4,-0.7 0.2,-1.1 -0.8,-1.2 v -55.7 c 1,-0.5 0.9,-1.7 1.4,-1.9 l 48.3,-27.9 c 0.1,0 0.6,-0.2 1.2,-0.2 0.6,0 1,0.1 1.1,0.2 l 48,27.7 0.4,0.9 c 0.1,0.1 -0.1,0.3 -0.1,0.4 z m -49.3,53.1 c -13.5,0 -24.5,-11 -24.5,-24.5 0,-13.5 11,-24.5 24.5,-24.5 9.1,0 17.1,5 21.3,12.5 l 13,-7.5 c -6.8,-11.9 -19.6,-20 -34.3,-20 -21.8,0 -39.5,17.7 -39.5,39.5 0,21.8 17.7,39.5 39.5,39.5 14.6,0 27.4,-8 34.2,-19.8 l -12.9,-7.6 c -4.2,7.4 -12.2,12.4 -21.3,12.4 z"
     fill="#9c033a"
     id="path2"
     sodipodi:nodetypes="cccsccssccccsccssccsssccsccccccccscccssssccsssccs"
     style="fill:#ffffff;fill-opacity:1" />
</svg>
