<?xml version="1.0" encoding="UTF-8" standalone="no"?>
<svg
   viewBox="0 0 400 400"
   version="1.1"
   id="svg4"
   sodipodi:docname="c_js.svg"
   width="400"
   height="400"
   inkscape:version="1.1 (ce6663b3b7, 2021-05-25)"
   xmlns:inkscape="http://www.inkscape.org/namespaces/inkscape"
   xmlns:sodipodi="http://sodipodi.sourceforge.net/DTD/sodipodi-0.dtd"
   xmlns="http://www.w3.org/2000/svg"
   xmlns:svg="http://www.w3.org/2000/svg">
  <defs
     id="defs8" />
  <sodipodi:namedview
     id="namedview6"
     pagecolor="#ffffff"
     bordercolor="#666666"
     borderopacity="1.0"
     inkscape:pageshadow="2"
     inkscape:pageopacity="0.0"
     inkscape:pagecheckerboard="true"
     showgrid="false"
     inkscape:zoom="1.2128906"
     inkscape:cx="-31.330113"
     inkscape:cy="211.47826"
     inkscape:window-width="1440"
     inkscape:window-height="872"
     inkscape:window-x="0"
     inkscape:window-y="28"
     inkscape:window-maximized="1"
     inkscape:current-layer="svg4"
     width="400px"
     height="400px" />
  <g
     id="g3697"
     transform="translate(7.752187,22.80005)">
    <path
       d="m 184.82889,166.49995 c -0.6,-1.1 -1.4,-2.1 -2.30001,-2.6 l -48.10007,-27.8 c -0.80001,-0.5 -1.90001,-0.7 -3.10001,-0.7 -1.2,0 -2.3,0.3 -3.10001,0.7 l -48.500078,27.8 c -1.700003,1 -3.400006,3.5 -3.400006,5.4 v 55.7 c 0,1.1 0.700002,2.3 1.400003,3.4 l 0.1,0.1 c 0.500001,0.8 1.300002,1.5 2.000003,1.9 l 48.300078,27.9 c 0.80001,0.5 2.00001,0.7 3.20001,0.7 1.2,0 2.3,-0.3 3.10001,-0.7 l 47.50007,-27.9 c 1.70001,-1 2.40001,-3.5 2.40001,-5.4 v -55.7 c 0,-0.8 0.4,-1.8 0,-2.6 z m -4.20001,2.1 c 0,0.3 -0.3,0.5 -0.3,0.7 v 55.7 c 0,0.8 -0.2,1.7 -0.4,2 l -47.60008,27.8 c -0.1,0.1 -0.5,0.2 -1.1,0.2 -0.6,0 -1,-0.1 -1.1,-0.2 l -48.200084,-27.8 c 0,0 -0.1,-0.1 -0.2,-0.1 l -0.600001,-0.6 c -0.400001,-0.7 0.2,-1.1 -0.800002,-1.2 v -55.7 c 1.000002,-0.5 0.900002,-1.7 1.400003,-1.9 l 48.300084,-27.9 c 0.1,0 0.6,-0.2 1.2,-0.2 0.6,0 1,0.1 1.1,0.2 l 48.00008,27.7 0.4,0.9 c 0.1,0.1 -0.1,0.3 -0.1,0.4 z m -49.30008,53.1 c -13.50002,0 -24.50004,-11 -24.50004,-24.5 0,-13.5 11.00002,-24.5 24.50004,-24.5 9.10002,0 17.10003,5 21.30003,12.5 l 13.00003,-7.5 c -6.80002,-11.9 -19.60004,-20 -34.30006,-20 -21.80004,0 -39.500067,17.7 -39.500067,39.5 0,21.8 17.700027,39.5 39.500067,39.5 14.60002,0 27.40004,-8 34.20006,-19.8 l -12.90003,-7.6 c -4.2,7.4 -12.20001,12.4 -21.30003,12.4 z"
       fill="#9c033a"
       id="path2"
       sodipodi:nodetypes="cccsccssccccsccssccsssccsccccccccscccssssccsssccs"
       style="fill:#ffffff;fill-opacity:1" />
    <path
       fill="#83CD29"
       d="m 303.93792,163.53345 -44.097,-25.605 c -2.781,-1.584 -6.402,-1.584 -9.205,0 l -44.568,25.605 c -2.87,1.651 -4.901,4.754 -4.901,8.073 v 51.142 c 0,3.319 2.084,6.423 4.954,8.083 l 11.775,6.688 c 5.628,2.772 7.617,2.772 10.178,2.772 8.333,0 13.093,-5.039 13.093,-13.828 v -50.49 c 0,-0.713 -0.371,-1.774 -1.071,-1.774 h -5.623 c -0.712,0 -2.306,1.061 -2.306,1.773 v 50.49 c 0,3.896 -3.524,7.773 -10.11,4.48 l -12.167,-7.013 c -0.424,-0.23 -0.723,-0.693 -0.723,-1.181 v -51.142 c 0,-0.482 0.555,-0.966 0.982,-1.213 l 44.424,-25.561 c 0.415,-0.235 1.025,-0.235 1.439,0 l 43.882,25.555 c 0.42,0.253 0.272,0.722 0.272,1.219 v 51.142 c 0,0.488 0.183,0.963 -0.232,1.198 l -44.086,25.576 c -0.378,0.227 -0.847,0.227 -1.261,0 l -11.307,-6.749 c -0.341,-0.198 -0.746,-0.269 -1.073,-0.086 -3.146,1.783 -3.726,2.02 -6.677,3.043 -0.726,0.253 -1.797,0.692 0.41,1.929 l 14.798,8.754 a 9.294,9.294 0 0 0 4.647,1.246 c 1.642,0 3.25,-0.426 4.667,-1.246 l 43.885,-25.582 c 2.87,-1.672 4.23,-4.764 4.23,-8.083 v -51.142 c 0,-3.319 -1.36,-6.414 -4.229,-8.073 z m -34.861,51.111 c -11.726,0 -14.309,-3.235 -15.17,-9.066 -0.1,-0.628 -0.633,-1.379 -1.272,-1.379 h -5.731 c -0.709,0 -1.279,0.86 -1.279,1.566 0,7.466 4.059,16.512 23.453,16.512 14.039,0 22.088,-5.455 22.088,-15.109 0,-9.572 -6.467,-12.084 -20.082,-13.886 -13.762,-1.819 -15.16,-2.738 -15.16,-5.962 0,-2.658 1.184,-6.203 11.374,-6.203 9.105,0 12.461,1.954 13.842,8.091 0.118,0.577 0.645,0.991 1.24,0.991 h 5.754 c 0.354,0 0.692,-0.143 0.94,-0.396 0.24,-0.272 0.367,-0.613 0.335,-0.979 -0.891,-10.568 -7.912,-15.493 -22.112,-15.493 -12.631,0 -20.166,5.334 -20.166,14.275 0,9.698 7.497,12.378 19.622,13.577 14.505,1.422 15.633,3.542 15.633,6.395 0,4.955 -3.978,7.066 -13.309,7.066 z"
       id="path8"
       style="fill:#ffffff;fill-opacity:1" />
  </g>
</svg>
