<?xml version="1.0" encoding="UTF-8" standalone="no"?>
<svg
   viewBox="0 0 300 300"
   version="1.1"
   id="svg8"
   sodipodi:docname="go.svg"
   width="300"
   height="300"
   inkscape:version="1.1 (ce6663b3b7, 2021-05-25)"
   xmlns:inkscape="http://www.inkscape.org/namespaces/inkscape"
   xmlns:sodipodi="http://sodipodi.sourceforge.net/DTD/sodipodi-0.dtd"
   xmlns="http://www.w3.org/2000/svg"
   xmlns:svg="http://www.w3.org/2000/svg">
  <defs
     id="defs12" />
  <sodipodi:namedview
     id="namedview10"
     pagecolor="#ffffff"
     bordercolor="#666666"
     borderopacity="1.0"
     inkscape:pageshadow="2"
     inkscape:pageopacity="0.0"
     inkscape:pagecheckerboard="true"
     showgrid="false"
     width="300px"
     inkscape:zoom="2.4257813"
     inkscape:cx="64.927536"
     inkscape:cy="97.494364"
     inkscape:window-width="1440"
     inkscape:window-height="874"
     inkscape:window-x="1440"
     inkscape:window-y="0"
     inkscape:window-maximized="1"
     inkscape:current-layer="svg8" />
  <g
     fill="#00acd7"
     fill-rule="evenodd"
     id="g6"
     style="fill:#ffffff;fill-opacity:1"
     transform="translate(66.000224,105.9999)">
    <path
       d="m 11.156,54.829 c -0.243,0 -0.303,-0.122 -0.182,-0.303 l 1.273,-1.637 c 0.12,-0.182 0.424,-0.303 0.666,-0.303 H 34.55 c 0.243,0 0.303,0.182 0.182,0.364 l -1.03,1.576 c -0.121,0.181 -0.424,0.363 -0.606,0.363 z m -9.152,5.575 c -0.242,0 -0.303,-0.12 -0.182,-0.303 l 1.273,-1.636 c 0.121,-0.182 0.424,-0.303 0.667,-0.303 h 27.636 c 0.242,0 0.364,0.182 0.303,0.364 l -0.485,1.454 c -0.06,0.243 -0.303,0.364 -0.545,0.364 z M 16.67,65.98 c -0.242,0 -0.302,-0.182 -0.181,-0.364 l 0.848,-1.515 c 0.122,-0.182 0.364,-0.363 0.607,-0.363 h 12.12 c 0.243,0 0.364,0.181 0.364,0.424 l -0.12,1.454 c 0,0.243 -0.243,0.425 -0.425,0.425 z M 79.58,53.738 c -3.819,0.97 -6.425,1.697 -10.182,2.666 -0.91,0.243 -0.97,0.303 -1.758,-0.606 -0.909,-1.03 -1.576,-1.697 -2.848,-2.303 -3.819,-1.878 -7.516,-1.333 -10.97,0.91 -4.121,2.666 -6.242,6.605 -6.182,11.514 0.06,4.849 3.394,8.849 8.182,9.516 4.121,0.545 7.576,-0.91 10.303,-4 0.545,-0.667 1.03,-1.394 1.636,-2.243 H 56.064 c -1.272,0 -1.575,-0.788 -1.151,-1.818 0.788,-1.879 2.242,-5.03 3.09,-6.606 0.183,-0.364 0.607,-0.97 1.516,-0.97 h 22.06 c -0.12,1.637 -0.12,3.273 -0.363,4.91 -0.667,4.363 -2.303,8.363 -4.97,11.878 -4.364,5.758 -10.06,9.333 -17.273,10.303 -5.939,0.788 -11.454,-0.364 -16.302,-4 -4.485,-3.394 -7.03,-7.879 -7.697,-13.454 -0.788,-6.606 1.151,-12.546 5.151,-17.758 4.303,-5.636 10,-9.212 16.97,-10.485 5.697,-1.03 11.151,-0.363 16.06,2.97 3.212,2.121 5.515,5.03 7.03,8.545 0.364,0.546 0.122,0.849 -0.606,1.03 z"
       id="path2"
       style="fill:#ffffff;fill-opacity:1" />
    <path
       d="m 99.64,87.253 c -5.515,-0.122 -10.546,-1.697 -14.788,-5.334 -3.576,-3.09 -5.818,-7.03 -6.545,-11.697 -1.091,-6.848 0.787,-12.909 4.909,-18.302 4.424,-5.819 9.757,-8.849 16.97,-10.122 6.181,-1.09 12,-0.484 17.272,3.091 4.788,3.273 7.757,7.697 8.545,13.515 1.03,8.182 -1.333,14.849 -6.97,20.546 -4,4.06 -8.909,6.606 -14.545,7.757 -1.636,0.303 -3.273,0.364 -4.848,0.546 z m 14.424,-24.485 c -0.06,-0.788 -0.06,-1.394 -0.182,-2 -1.09,-6 -6.606,-9.394 -12.363,-8.06 -5.637,1.272 -9.273,4.848 -10.606,10.545 -1.091,4.727 1.212,9.515 5.575,11.454 3.334,1.455 6.667,1.273 9.879,-0.363 4.788,-2.485 7.394,-6.364 7.697,-11.576 z"
       fill-rule="nonzero"
       id="path4"
       style="fill:#ffffff;fill-opacity:1" />
  </g>
</svg>
